/* XPM */
static char *result[] = {
/* columns rows colors chars-per-pixel */
"60 60 10 1 ",
"  c #21110D",
". c #342319",
"X c #242A3D",
"o c #503625",
"O c #755338",
"+ c #3B7251",
"@ c #414B66",
"# c #509B66",
"$ c #677598",
"% c #B6BEC8",
/* pixels */
"############################################################",
"############################################################",
"############################################################",
"############################################################",
"############################################################",
"############################################################",
"############################################################",
"############################################################",
"############################################################",
"############################################################",
"############################################################",
"############################################################",
"############################################################",
"############################################################",
"############################################################",
"############################################################",
"############################################################",
"############################################################",
"############################################################",
"############################################################",
"############################################################",
"############################################################",
"###################                     ####################",
"###################                     ####################",
"#################  ooo$$$ooooooooo$$$ooo ###################",
"#################  OOO%%%OOOOOOOOO%%%OOO ###################",
"#################  OOO%%%OOOOOOOOO%%%OOO ###################",
"#################  OOO%%%OOOOOOOOO%%%OOO ###################",
"#################  oOO%%%OOOOOOOOO%%%Ooo ###################",
"#################  oOO%%%OOOOOOOOO%%%Ooo ###################",
"#################  ooo$$$ooooooooo$$$ooo ###################",
"#################  @$$$$$$%%%%%%$$$$$$@@ ###################",
"#################  @$$$$$$%%%%%%$$$$$$@@ ###################",
"################+++ ..@@@.@@XXX@..@@@.  +++#################",
"################+++ ..$$$o$$$$$$oo$$$.  +++#################",
"################+++ ..$$$o$$$$$$oo$$$.  +++#################",
"################+++ ..$$$ooooooooo$$$.  +++#################",
"################++++  $$$ooooooooo$$$ +++++#################",
"################++++  $$$ooooooooo$$$ +++++#################",
"###################+++++++++++++++++++++####################",
"######################+++++++++++++++#######################",
"######################+++++++++++++++#######################",
"############################################################",
"############################################################",
"############################################################",
"############################################################",
"############################################################",
"############################################################",
"############################################################",
"############################################################",
"############################################################",
"############################################################",
"############################################################",
"############################################################",
"############################################################",
"############################################################",
"############################################################",
"############################################################",
"############################################################",
"############################################################"
};
