/* XPM */
static char *result[] = {
/* columns rows colors chars-per-pixel */
"60 60 9 1 ",
"  c #21110D",
". c #342319",
"X c #242A3D",
"o c #503625",
"O c #755338",
"+ c #3B7251",
"@ c #509B66",
"# c #677598",
"$ c #B6BEC8",
/* pixels */
"@@@@@@@@@@@@@@@@@@@@@@@@@@@@@@@@@@@@@@@@@@@@@@@@@@@@@@@@@@@@",
"@@@@@@@@@@@@@@@@@@@@@@@@@@@@@@@@@@@@@@@@@@@@@@@@@@@@@@@@@@@@",
"@@@@@@@@@@@@@@@@@@@@@@@@@@@@@@@@@@@@@@@@@@@@@@@@@@@@@@@@@@@@",
"@@@@@@@@@@@@@@@@@@@@@@@@@@@@@@@@@@@@@@@@@@@@@@@@@@@@@@@@@@@@",
"@@@@@@@@@@@@@@@@@@@@@@@@@@@@@@@@@@@@@@@@@@@@@@@@@@@@@@@@@@@@",
"@@@@@@@@@@@@@@@@@@@@@@@@@@@@@@@@@@@@@@@@@@@@@@@@@@@@@@@@@@@@",
"@@@@@@@@@@@@@@@@@@@@@@@@@@@@@@@@@@@@@@@@@@@@@@@@@@@@@@@@@@@@",
"@@@@@@@@@@@@@@@@@@@@@@@@@@@@@@@@@@@@@@@@@@@@@@@@@@@@@@@@@@@@",
"@@@@@@@@@@@@@@@@@@@@@@@@@@@@@@@@@@@@@@@@@@@@@@@@@@@@@@@@@@@@",
"@@@@@@@@@@@@@@@@@@@@@@@@@@@@@@@@@@@@@@@@@@@@@@@@@@@@@@@@@@@@",
"@@@@@@@@@@@@@@@@@@@@@@@@@@@@@@@@@@@@@@@@@@@@@@@@@@@@@@@@@@@@",
"@@@@@@@@@@@@@@@@@@@@@@@@@@@@@@@@@@@@@@@@@@@@@@@@@@@@@@@@@@@@",
"@@@@@@@@@@@@@@@@@@@@@@@@@@@@@@@@@@@@@@@@@@@@@@@@@@@@@@@@@@@@",
"@@@@@@@@@@@@@@@@@@@@@@@@@@@@@@@@@@@@@@@@@@@@@@@@@@@@@@@@@@@@",
"@@@@@@@@@@@@@@@@@@@@@@@@@@@@@@@@@@@@@@@@@@@@@@@@@@@@@@@@@@@@",
"@@@@@@@@@@@@@@@@@@@@@@@@@@@@@@@@@@@@@@@@@@@@@@@@@@@@@@@@@@@@",
"@@@@@@@@@@@@@@@@@@@@@@@@@@@@@@@@@@@@@@@@@@@@@@@@@@@@@@@@@@@@",
"@@@@@@@@@@@@@@@@@@@@@@@@@@@@@@@@@@@@@@@@@@@@@@@@@@@@@@@@@@@@",
"@@@@@@@@@@@@@@@@@@@@@@@@@@@@@@@@@@@@@@@@@@@@@@@@@@@@@@@@@@@@",
"@@@@@@@@@@@@@@@@@@@@@@@@@@@@@@@@@@@@@@@@@@@@@@@@@@@@@@@@@@@@",
"@@@@@@@@@@@@@@@@@@@@                  @@@@@@@@@@@@@@@@@@@@@@",
"@@@@@@@@@@@@@@@@@@@@                  @@@@@@@@@@@@@@@@@@@@@@",
"@@@@@@@@@@@@@@@@@@  $$$OOOOOOOOOOO$$$$ @@@@@@@@@@@@@@@@@@@@@",
"@@@@@@@@@@@@@@@@@@  $$$OOOOOOOOOOO$$$$ @@@@@@@@@@@@@@@@@@@@@",
"@@@@@@@@@@@@@@@@  OO                  O  @@@@@@@@@@@@@@@@@@@",
"@@@@@@@@@@@@@@@@  OO                  O  @@@@@@@@@@@@@@@@@@@",
"@@@@@@@@@@@@@@@@  OO                  O  @@@@@@@@@@@@@@@@@@@",
"@@@@@@@@@@@@@@@@  OO                  O  @@@@@@@@@@@@@@@@@@@",
"@@@@@@@@@@@@@@@@  OO                  O  @@@@@@@@@@@@@@@@@@@",
"@@@@@@@@@@@@@@@@  oo$$$OOOOOOOOOOO$$$$o  @@@@@@@@@@@@@@@@@@@",
"@@@@@@@@@@@@@@@@  oo$$$OOOOOOOOOOO$$$$o  @@@@@@@@@@@@@@@@@@@",
"@@@@@@@@@@@@@@@@  ..###oo##XXX##oo####.  @@@@@@@@@@@@@@@@@@@",
"@@@@@@@@@@@@@@@@  ..###oo##XXX##oo####.  @@@@@@@@@@@@@@@@@@@",
"@@@@@@@@@@@@@@@@  ..###oo##XXX##oo####.  ++@@@@@@@@@@@@@@@@@",
"@@@@@@@@@@@@@@@@  ..###oo##XXX##oo####.  ++@@@@@@@@@@@@@@@@@",
"@@@@@@@@@@@@@@@@  ..###oo#######oo####.  ++@@@@@@@@@@@@@@@@@",
"@@@@@@@@@@@@@@@@  ..###oo#######oo####.  ++@@@@@@@@@@@@@@@@@",
"@@@@@@@@@@@@@@@@  ..###ooooooooooo####.  ++@@@@@@@@@@@@@@@@@",
"@@@@@@@@@@@@@@@@  ..###ooooooooooo####.  ++@@@@@@@@@@@@@@@@@",
"@@@@@@@@@@@@@@@@++  ###ooooooooooo#### ++++@@@@@@@@@@@@@@@@@",
"@@@@@@@@@@@@@@@@+++++++++++++++++++++++++@@@@@@@@@@@@@@@@@@@",
"@@@@@@@@@@@@@@@@+++++++++++++++++++++++++@@@@@@@@@@@@@@@@@@@",
"@@@@@@@@@@@@@@@@@@@@++++++++++++++++++@@@@@@@@@@@@@@@@@@@@@@",
"@@@@@@@@@@@@@@@@@@@@++++++++++++++++++@@@@@@@@@@@@@@@@@@@@@@",
"@@@@@@@@@@@@@@@@@@@@@@@@@@@@@@@@@@@@@@@@@@@@@@@@@@@@@@@@@@@@",
"@@@@@@@@@@@@@@@@@@@@@@@@@@@@@@@@@@@@@@@@@@@@@@@@@@@@@@@@@@@@",
"@@@@@@@@@@@@@@@@@@@@@@@@@@@@@@@@@@@@@@@@@@@@@@@@@@@@@@@@@@@@",
"@@@@@@@@@@@@@@@@@@@@@@@@@@@@@@@@@@@@@@@@@@@@@@@@@@@@@@@@@@@@",
"@@@@@@@@@@@@@@@@@@@@@@@@@@@@@@@@@@@@@@@@@@@@@@@@@@@@@@@@@@@@",
"@@@@@@@@@@@@@@@@@@@@@@@@@@@@@@@@@@@@@@@@@@@@@@@@@@@@@@@@@@@@",
"@@@@@@@@@@@@@@@@@@@@@@@@@@@@@@@@@@@@@@@@@@@@@@@@@@@@@@@@@@@@",
"@@@@@@@@@@@@@@@@@@@@@@@@@@@@@@@@@@@@@@@@@@@@@@@@@@@@@@@@@@@@",
"@@@@@@@@@@@@@@@@@@@@@@@@@@@@@@@@@@@@@@@@@@@@@@@@@@@@@@@@@@@@",
"@@@@@@@@@@@@@@@@@@@@@@@@@@@@@@@@@@@@@@@@@@@@@@@@@@@@@@@@@@@@",
"@@@@@@@@@@@@@@@@@@@@@@@@@@@@@@@@@@@@@@@@@@@@@@@@@@@@@@@@@@@@",
"@@@@@@@@@@@@@@@@@@@@@@@@@@@@@@@@@@@@@@@@@@@@@@@@@@@@@@@@@@@@",
"@@@@@@@@@@@@@@@@@@@@@@@@@@@@@@@@@@@@@@@@@@@@@@@@@@@@@@@@@@@@",
"@@@@@@@@@@@@@@@@@@@@@@@@@@@@@@@@@@@@@@@@@@@@@@@@@@@@@@@@@@@@",
"@@@@@@@@@@@@@@@@@@@@@@@@@@@@@@@@@@@@@@@@@@@@@@@@@@@@@@@@@@@@",
"@@@@@@@@@@@@@@@@@@@@@@@@@@@@@@@@@@@@@@@@@@@@@@@@@@@@@@@@@@@@"
};
