/* XPM */
static char *result[] = {
/* columns rows colors chars-per-pixel */
"60 60 10 1 ",
"  c black",
". c #1D235D",
"X c #3B7251",
"o c #9E2E46",
"O c #509B66",
"+ c #33418A",
"@ c #425B9E",
"# c #4D8AB3",
"$ c #65B1B8",
"% c white",
/* pixels */
"OOOOOOOOOOOOOOOOOOOOOOOOOOOOOOOOOOOOOOOOOOOOOOOOOOOOOOOOOOOO",
"OOOOOOOOOOOOOOOOOOOOOOOOOOOOOOOOOOOOOOOOOOOOOOOOOOOOOOOOOOOO",
"OOOOOOOOOOOOOOOOOOOOOOOOOOOOOOOOOOOOOOOOOOOOOOOOOOOOOOOOOOOO",
"OOOOOOOOOOOOOOOOOOOOOOOOOOOOOOOOOOOOOOOOOOOOOOOOOOOOOOOOOOOO",
"OOOOOOOOOOOOOOOOOOOOOOOOOOOOOOOOOOOOOOOOOOOOOOOOOOOOOOOOOOOO",
"OOOOOOOOOOOOOOOOOOOOOOOOOOOOOOOOOOOOOOOOOOOOOOOOOOOOOOOOOOOO",
"OOOOOOOOOOOOOOOOOOOOOOOOOOOOOOOOOOOOOOOOOOOOOOOOOOOOOOOOOOOO",
"OOOOOOOOOOOOOOOOOOOOOOOOOOOOOOOOOOOOOOOOOOOOOOOOOOOOOOOOOOOO",
"OOOOOOOOOOOOOOOOOOOOOOOOOOOOOOOOOOOOOOOOOOOOOOOOOOOOOOOOOOOO",
"OOOOOOOOOOOOOOOOOOOOOOOOOOOOOOOOOOOOOOOOOOOOOOOOOOOOOOOOOOOO",
"OOOOOOOOOOOOOOOOOOOOOOOOOOOOOOOOOOOOOOOOOOOOOOOOOOOOOOOOOOOO",
"OOOOOOOOOOOOOOOOOOOOOOOOOOOOOOOOOOOOOOOOOOOOOOOOOOOOOOOOOOOO",
"OOOOOOOOOOOOOOOOOOOOOOOOOOOOOOOOOOOOOOOOOOOOOOOOOOOOOOOOOOOO",
"OOOOOOOOOOOOOOOOOOOOOOOOOOOOOOOOOOOOOOOOOOOOOOOOOOOOOOOOOOOO",
"OOOOOOOOOOOOOOOOOOOOOOOO...........OOOOOOOOOOOOOOOOOOOOOOOOO",
"OOOOOOOOOOOOOOOOOOOOOO..###########..OOOOOOOOOOOOOOOOOOOOOOO",
"OOOOOOOOOOOOOOOOOOOOOO..###########..OOOOOOOOOOOOOOOOOOOOOOO",
"OOOOOOOOOOOOOOOOOOOO..@@##$$$$$$$$$$$..OOOOOOOOOOOOOOOOOOOOO",
"OOOOOOOOOOOOOOOOOOOO..@@##$$$$$$$$$$$..OOOOOOOOOOOOOOOOOOOOO",
"OOOOOOOOOOOOOOOOOOOO..##$$$$%  $$$$  $$..OOOOOOOOOOOOOOOOOOO",
"OOOOOOOOOOOOOOOOOOOO..##$$$$%  $$$$  $$..OOOOOOOOOOOOOOOOOOO",
"OOOOOOOOOOOOOOOOOO..####$$$$   $$$$  $$..OOOOOOOOOOOOOOOOOOO",
"OOOOOOOOOOOOOOOOOO..####$$$$   $$$$  $$..OOOOOOOOOOOOOOOOOOO",
"OOOOOOOOOOOOOOOOOO..##$$$$$$$$$$$$$$$$$..OOOOOOOOOOOOOOOOOOO",
"OOOOOOOOOOOOOOOOOO..##$$$$$$$$$$$$$$$$$..OOOOOOOOOOOOOOOOOOO",
"OOOOOOOOOOOOOOOOOO..##$$$$$$$$$$$$$$$$$..OOOOOOOOOOOOOOOOOOO",
"OOOOOOOOOOOOOOOOOO..##$$$$$$$$$$$$$$$$$..OOOOOOOOOOOOOOOOOOO",
"OOOOOOOOOOOOOOOOOO..##$$++++$$$$$$$$$++..OOOOOOOOOOOOOOOOOOO",
"OOOOOOOOOOOOOOOOOO..##$$++++$$$$$$$$$++..OOOOOOOOOOOOOOOOOOO",
"OOOOOOOOOOOOOOOOOO..##$$$$+++++++++++$$..OOOOOOOOOOOOOOOOOOO",
"OOOOOOOOOOOOOOOOOOOO..##$$$$ooo++++$$##..OOOOOOOOOOOOOOOOOOO",
"OOOOOOOOOOOOOOOOOOOO..##$$$$ooo++++$$##..OOOOOOOOOOOOOOOOOOO",
"OOOOOOOOOOOOOOOOOOOO..@@###########@@..OOOOOOOOOOOOOOOOOOOOO",
"OOOOOOOOOOOOOOOOOOOO..@@###########@@..OOOOOOOOOOOOOOOOOOOOO",
"OOOOOOOOOOOOOOOOOOOOOO..@@@@@@@@@@@..OOOOOOOOOOOOOOOOOOOOOOO",
"OOOOOOOOOOOOOOOOOOOOOO..@@@@@@@@@@@..OOOOOOOOOOOOOOOOOOOOOOO",
"OOOOOOOOOOOOOOOOOOOOOOOO...........OOOOOOOOOOOOOOOOOOOOOOOOO",
"OOOOOOOOOOOOOOOOOOOOOOOO...........OOOOOOOOOOOOOOOOOOOOOOOOO",
"OOOOOOOOOOOOOOOOOOOOXXXXXXXXXXXXXXXXXXXOOOOOOOOOOOOOOOOOOOOO",
"OOOOOOOOOOOOOOOOOOOOXXXXXXXXXXXXXXXXXXXOOOOOOOOOOOOOOOOOOOOO",
"OOOOOOOOOOOOOOOOOOXXXXXXXXXXXXXXXXXXXXXXXOOOOOOOOOOOOOOOOOOO",
"OOOOOOOOOOOOOOOOOOXXXXXXXXXXXXXXXXXXXXXXXOOOOOOOOOOOOOOOOOOO",
"OOOOOOOOOOOOOOOOOOXXXXXXXXXXXXXXXXXXXXXXXOOOOOOOOOOOOOOOOOOO",
"OOOOOOOOOOOOOOOOOOXXXXXXXXXXXXXXXXXXXXXXXOOOOOOOOOOOOOOOOOOO",
"OOOOOOOOOOOOOOOOOOXXXXXXXXXXXXXXXXXXXXXXXOOOOOOOOOOOOOOOOOOO",
"OOOOOOOOOOOOOOOOOOOOXXXXXXXXXXXXXXXXXXXOOOOOOOOOOOOOOOOOOOOO",
"OOOOOOOOOOOOOOOOOOOOXXXXXXXXXXXXXXXXXXXOOOOOOOOOOOOOOOOOOOOO",
"OOOOOOOOOOOOOOOOOOOOOOOOOOOOOOOOOOOOOOOOOOOOOOOOOOOOOOOOOOOO",
"OOOOOOOOOOOOOOOOOOOOOOOOOOOOOOOOOOOOOOOOOOOOOOOOOOOOOOOOOOOO",
"OOOOOOOOOOOOOOOOOOOOOOOOOOOOOOOOOOOOOOOOOOOOOOOOOOOOOOOOOOOO",
"OOOOOOOOOOOOOOOOOOOOOOOOOOOOOOOOOOOOOOOOOOOOOOOOOOOOOOOOOOOO",
"OOOOOOOOOOOOOOOOOOOOOOOOOOOOOOOOOOOOOOOOOOOOOOOOOOOOOOOOOOOO",
"OOOOOOOOOOOOOOOOOOOOOOOOOOOOOOOOOOOOOOOOOOOOOOOOOOOOOOOOOOOO",
"OOOOOOOOOOOOOOOOOOOOOOOOOOOOOOOOOOOOOOOOOOOOOOOOOOOOOOOOOOOO",
"OOOOOOOOOOOOOOOOOOOOOOOOOOOOOOOOOOOOOOOOOOOOOOOOOOOOOOOOOOOO",
"OOOOOOOOOOOOOOOOOOOOOOOOOOOOOOOOOOOOOOOOOOOOOOOOOOOOOOOOOOOO",
"OOOOOOOOOOOOOOOOOOOOOOOOOOOOOOOOOOOOOOOOOOOOOOOOOOOOOOOOOOOO",
"OOOOOOOOOOOOOOOOOOOOOOOOOOOOOOOOOOOOOOOOOOOOOOOOOOOOOOOOOOOO",
"OOOOOOOOOOOOOOOOOOOOOOOOOOOOOOOOOOOOOOOOOOOOOOOOOOOOOOOOOOOO",
"OOOOOOOOOOOOOOOOOOOOOOOOOOOOOOOOOOOOOOOOOOOOOOOOOOOOOOOOOOOO"
};
