/* XPM */
static char *result[] = {
/* columns rows colors chars-per-pixel */
"60 60 10 1 ",
"  c black",
". c #1D235D",
"X c #3B7251",
"o c #9E2E46",
"O c #509B66",
"+ c #33418A",
"@ c #425B9E",
"# c #4D8AB3",
"$ c #65B1B8",
"% c white",
/* pixels */
"OOOOOOOOOOOOOOOOOOOOOOOOOOOOOOOOOOOOOOOOOOOOOOOOOOOOOOOOOOOO",
"OOOOOOOOOOOOOOOOOOOOOOOOOOOOOOOOOOOOOOOOOOOOOOOOOOOOOOOOOOOO",
"OOOOOOOOOOOOOOOOOOOOOOOOOOOOOOOOOOOOOOOOOOOOOOOOOOOOOOOOOOOO",
"OOOOOOOOOOOOOOOOOOOOOOOOOOOOOOOOOOOOOOOOOOOOOOOOOOOOOOOOOOOO",
"OOOOOOOOOOOOOOOOOOOOOOOOOOOOOOOOOOOOOOOOOOOOOOOOOOOOOOOOOOOO",
"OOOOOOOOOOOOOOOOOOOOOOOOOOOOOOOOOOOOOOOOOOOOOOOOOOOOOOOOOOOO",
"OOOOOOOOOOOOOOOOOOOOOOOOOOOOOOOOOOOOOOOOOOOOOOOOOOOOOOOOOOOO",
"OOOOOOOOOOOOOOOOOOOOOOOOOOOOOOOOOOOOOOOOOOOOOOOOOOOOOOOOOOOO",
"OOOOOOOOOOOOOOOOOOOOOOOOOOOOOOOOOOOOOOOOOOOOOOOOOOOOOOOOOOOO",
"OOOOOOOOOOOOOOOOOOOOOOOOOOOOOOOOOOOOOOOOOOOOOOOOOOOOOOOOOOOO",
"OOOOOOOOOOOOOOOOOOOO..................OOOOOOOOOOOOOOOOOOOOOO",
"OOOOOOOOOOOOOOOOOOOO..................OOOOOOOOOOOOOOOOOOOOOO",
"OOOOOOOOOOOOOOOOOOOO..................OOOOOOOOOOOOOOOOOOOOOO",
"OOOOOOOOOOOOOOOOOO..@@@###############...OOOOOOOOOOOOOOOOOOO",
"OOOOOOOOOOOOOOOOOO..@@@###############...OOOOOOOOOOOOOOOOOOO",
"OOOOOOOOOOOOOOOO..@@#####$$$$$$$$$$$$$@@@..OOOOOOOOOOOOOOOOO",
"OOOOOOOOOOOOOOOO..@@#####$$$$$$$$$$$$$@@@..OOOOOOOOOOOOOOOOO",
"OOOOOOOOOOOOOOOO..#####$$$$$$$$$$$$$$$$$$..OOOOOOOOOOOOOOOOO",
"OOOOOOOOOOOOOOOO..#####$$$$$$$$$$$$$$$$$$..OOOOOOOOOOOOOOOOO",
"OOOOOOOOOOOOOOOO..#####$$$$%%   $$$$  $$$@@..OOOOOOOOOOOOOOO",
"OOOOOOOOOOOOOOOO..#####$$$$%%   $$$$  $$$@@..OOOOOOOOOOOOOOO",
"OOOOOOOOOOOOOOOO..#####$$$$%%   $$$$  $$$@@..OOOOOOOOOOOOOOO",
"OOOOOOOOOOOOOO..@@##$$$$$$$     $$$$  $$$$$..OOOOOOOOOOOOOOO",
"OOOOOOOOOOOOOO..@@##$$$$$$$     $$$$  $$$$$..OOOOOOOOOOOOOOO",
"OOOOOOOOOOOOOO..@@##$$$++++$$$$$$$$$$$+++$$..OOOOOOOOOOOOOOO",
"OOOOOOOOOOOOOO..@@##$$$++++$$$$$$$$$$$+++$$..OOOOOOOOOOOOOOO",
"OOOOOOOOOOOOOO..@@##$$$$$+++++++++++++$$$##..OOOOOOOOOOOOOOO",
"OOOOOOOOOOOOOO..@@##$$$$$+++++++++++++$$$##..OOOOOOOOOOOOOOO",
"OOOOOOOOOOOOOO..@@@@###$$$$ooooo++++$$$$$@@..OOOOOOOOOOOOOOO",
"OOOOOOOOOOOOOO..@@@@###$$$$ooooo++++$$$$$@@..OOOOOOOOOOOOOOO",
"OOOOOOOOOOOOOO..@@@@###$$$$ooooo++++$$$$$@@..OOOOOOOOOOOOOOO",
"OOOOOOOOOOOOOOOO..@@@@@###############@@@@@..OOOOOOOOOOOOOOO",
"OOOOOOOOOOOOOOOO..@@@@@###############@@@@@..OOOOOOOOOOOOOOO",
"OOOOOOOOOOOOOOXXXX..@@@@@@@@@@@@@@@@@@@@@..XXOOOOOOOOOOOOOOO",
"OOOOOOOOOOOOOOXXXX..@@@@@@@@@@@@@@@@@@@@@..XXOOOOOOOOOOOOOOO",
"OOOOOOOOOOOXXXXXXXXX.....................XXXXXXOOOOOOOOOOOOO",
"OOOOOOOOOOOXXXXXXXXX.....................XXXXXXOOOOOOOOOOOOO",
"OOOOOOOOOOOXXXXXXXXXXXXXXXXXXXXXXXXXXXXXXXXXXXXOOOOOOOOOOOOO",
"OOOOOOOOOOOXXXXXXXXXXXXXXXXXXXXXXXXXXXXXXXXXXXXOOOOOOOOOOOOO",
"OOOOOOOOOOOXXXXXXXXXXXXXXXXXXXXXXXXXXXXXXXXXXXXOOOOOOOOOOOOO",
"OOOOOOOOOOOXXXXXXXXXXXXXXXXXXXXXXXXXXXXXXXXXXXXOOOOOOOOOOOOO",
"OOOOOOOOOOOXXXXXXXXXXXXXXXXXXXXXXXXXXXXXXXXXXXXOOOOOOOOOOOOO",
"OOOOOOOOOOOOOOXXXXXXXXXXXXXXXXXXXXXXXXXXXXXXXOOOOOOOOOOOOOOO",
"OOOOOOOOOOOOOOXXXXXXXXXXXXXXXXXXXXXXXXXXXXXXXOOOOOOOOOOOOOOO",
"OOOOOOOOOOOOOOOOOOOOOOOOOOOOOOOOOOOOOOOOOOOOOOOOOOOOOOOOOOOO",
"OOOOOOOOOOOOOOOOOOOOOOOOOOOOOOOOOOOOOOOOOOOOOOOOOOOOOOOOOOOO",
"OOOOOOOOOOOOOOOOOOOOOOOOOOOOOOOOOOOOOOOOOOOOOOOOOOOOOOOOOOOO",
"OOOOOOOOOOOOOOOOOOOOOOOOOOOOOOOOOOOOOOOOOOOOOOOOOOOOOOOOOOOO",
"OOOOOOOOOOOOOOOOOOOOOOOOOOOOOOOOOOOOOOOOOOOOOOOOOOOOOOOOOOOO",
"OOOOOOOOOOOOOOOOOOOOOOOOOOOOOOOOOOOOOOOOOOOOOOOOOOOOOOOOOOOO",
"OOOOOOOOOOOOOOOOOOOOOOOOOOOOOOOOOOOOOOOOOOOOOOOOOOOOOOOOOOOO",
"OOOOOOOOOOOOOOOOOOOOOOOOOOOOOOOOOOOOOOOOOOOOOOOOOOOOOOOOOOOO",
"OOOOOOOOOOOOOOOOOOOOOOOOOOOOOOOOOOOOOOOOOOOOOOOOOOOOOOOOOOOO",
"OOOOOOOOOOOOOOOOOOOOOOOOOOOOOOOOOOOOOOOOOOOOOOOOOOOOOOOOOOOO",
"OOOOOOOOOOOOOOOOOOOOOOOOOOOOOOOOOOOOOOOOOOOOOOOOOOOOOOOOOOOO",
"OOOOOOOOOOOOOOOOOOOOOOOOOOOOOOOOOOOOOOOOOOOOOOOOOOOOOOOOOOOO",
"OOOOOOOOOOOOOOOOOOOOOOOOOOOOOOOOOOOOOOOOOOOOOOOOOOOOOOOOOOOO",
"OOOOOOOOOOOOOOOOOOOOOOOOOOOOOOOOOOOOOOOOOOOOOOOOOOOOOOOOOOOO",
"OOOOOOOOOOOOOOOOOOOOOOOOOOOOOOOOOOOOOOOOOOOOOOOOOOOOOOOOOOOO",
"OOOOOOOOOOOOOOOOOOOOOOOOOOOOOOOOOOOOOOOOOOOOOOOOOOOOOOOOOOOO"
};
