/* XPM */
static char *result[] = {
/* columns rows colors chars-per-pixel */
"60 60 10 1 ",
"  c black",
". c #1D235D",
"X c #3B7251",
"o c #9E2E46",
"O c #509B66",
"+ c #33418A",
"@ c #425B9E",
"# c #4D8AB3",
"$ c #65B1B8",
"% c white",
/* pixels */
"OOOOOOOOOOOOOOOOOOOOOOOOOOOOOOOOOOOOOOOOOOOOOOOOOOOOOOOOOOOO",
"OOOOOOOOOOOOOOOOOOOOOOOOOOOOOOOOOOOOOOOOOOOOOOOOOOOOOOOOOOOO",
"OOOOOOOOOOOOOOOOOOOOOOOOOOOOOOOOOOOOOOOOOOOOOOOOOOOOOOOOOOOO",
"OOOOOOOOOOOOOOOOOOOOOOOOOOOOOOOOOOOOOOOOOOOOOOOOOOOOOOOOOOOO",
"OOOOOOOOOOOOOOOOOOOOOOOOOOOOOOOOOOOOOOOOOOOOOOOOOOOOOOOOOOOO",
"OOOOOOOOOOOOOOOOOOOOOOOOOOOOOOOOOOOOOOOOOOOOOOOOOOOOOOOOOOOO",
"OOOOOOOOOOOOOOOOOOOOOOOOOOOOOOOOOOOOOOOOOOOOOOOOOOOOOOOOOOOO",
"OOOOOOOOOOOOOOOOOOOOOOOOOOOOOOOOOOOOOOOOOOOOOOOOOOOOOOOOOOOO",
"OOOOOOOOOOOOOOOOOOOOOOOOOOOOOOOOOOOOOOOOOOOOOOOOOOOOOOOOOOOO",
"OOOOOOOOOOOOOOOOOOOOOOOOOOOOOOOOOOOOOOOOOOOOOOOOOOOOOOOOOOOO",
"OOOOOOOOOOOOOOOOOOOOOOOOOOOOOOOOOOOOOOOOOOOOOOOOOOOOOOOOOOOO",
"OOOOOOOOOOOOOOOOOOOOOOOOOOOOOOOOOOOOOOOOOOOOOOOOOOOOOOOOOOOO",
"OOOOOOOOOOOOOOOOOOOOOOOOOOOOOOOOOOOOOOOOOOOOOOOOOOOOOOOOOOOO",
"OOOOOOOOOOOOOOOO...................OOOOOOOOOOOOOOOOOOOOOOOOO",
"OOOOOOOOOOOOOOOO...................OOOOOOOOOOOOOOOOOOOOOOOOO",
"OOOOOOOOOOOOOO..@@@################...OOOOOOOOOOOOOOOOOOOOOO",
"OOOOOOOOOOOOOO..@@@################...OOOOOOOOOOOOOOOOOOOOOO",
"OOOOOOOOOOOOOO..@@@################...OOOOOOOOOOOOOOOOOOOOOO",
"OOOOOOOOOOOO..@@########$$$$$$$$$$$@@@..OOOOOOOOOOOOOOOOOOOO",
"OOOOOOOOOOOO..@@########$$$$$$$$$$$@@@..OOOOOOOOOOOOOOOOOOOO",
"OOOOOOOOOOOO..#####$$$$$$$$$$$$$$$$$$$..OOOOOOOOOOOOOOOOOOOO",
"OOOOOOOOOOOO..#####$$$$$$$$$$$$$$$$$$$..OOOOOOOOOOOOOOOOOOOO",
"OOOOOOOOOOOO..##$$$$$$$$%%  $$$$$  $$$@@...OOOOOOOOOOOOOOOOO",
"OOOOOOOOOOOO..##$$$$$$$$%%  $$$$$  $$$@@...OOOOOOOOOOOOOOOOO",
"OOOOOOOOOOOO..##$$$$$$$$%%  $$$$$  $$$@@...OOOOOOOOOOOOOOOOO",
"OOOOOOOOO...@@##$$$$$$$$    $$$$$  $$$##...OOOOOOOOOOOOOOOOO",
"OOOOOOOOO...@@##$$$$$$$$    $$$$$  $$$##...OOOOOOOOOOOOOOOOO",
"OOOOOOOOO...@@##$$$+++++$$$$$$$$$$$+++##...OOOOOOOOOOOOOOOOO",
"OOOOOOOOO...@@##$$$+++++$$$$$$$$$$$+++##...OOOOOOOOOOOOOOOOO",
"OOOOOOOOO...@@##$$$$$++++++++++++++$$$##...OOOOOOOOOOOOOOOOO",
"OOOOOOOOO...@@##$$$$$++++++++++++++$$$##...OOOOOOOOOOOOOOOOO",
"OOOOOOOOO...@@##$$$$$++++++++++++++$$$##...OOOOOOOOOOOOOOOOO",
"OOOOOOOXX...@@@@###$$$$$oooo+++++$$###@@...XXOOOOOOOOOOOOOOO",
"OOOOOOOXX...@@@@###$$$$$oooo+++++$$###@@...XXOOOOOOOOOOOOOOO",
"OOOOOOOXXXXX..@@@@@################@@@@@...XXOOOOOOOOOOOOOOO",
"OOOOOOOXXXXX..@@@@@################@@@@@...XXOOOOOOOOOOOOOOO",
"OOOOOOOXXXXX..@@@@@################@@@@@...XXOOOOOOOOOOOOOOO",
"OOOOOOOXXXXXXXXX@@@@@@@@@@@@@@@@@@@@@@..XXXXXOOOOOOOOOOOOOOO",
"OOOOOOOXXXXXXXXX@@@@@@@@@@@@@@@@@@@@@@..XXXXXOOOOOOOOOOOOOOO",
"OOOOOOOOOXXXXXXXXXXXXXXXXXXXXXXXXXXXXXXXXXXOOOOOOOOOOOOOOOOO",
"OOOOOOOOOXXXXXXXXXXXXXXXXXXXXXXXXXXXXXXXXXXOOOOOOOOOOOOOOOOO",
"OOOOOOOOOOOOOOOOOOOOOOOOOOOOOOOOOOOOOOOOOOOOOOOOOOOOOOOOOOOO",
"OOOOOOOOOOOOOOOOOOOOOOOOOOOOOOOOOOOOOOOOOOOOOOOOOOOOOOOOOOOO",
"OOOOOOOOOOOOOOOOOOOOOOOOOOOOOOOOOOOOOOOOOOOOOOOOOOOOOOOOOOOO",
"OOOOOOOOOOOOOOOOOOOOOOOOOOOOOOOOOOOOOOOOOOOOOOOOOOOOOOOOOOOO",
"OOOOOOOOOOOOOOOOOOOOOOOOOOOOOOOOOOOOOOOOOOOOOOOOOOOOOOOOOOOO",
"OOOOOOOOOOOOOOOOOOOOOOOOOOOOOOOOOOOOOOOOOOOOOOOOOOOOOOOOOOOO",
"OOOOOOOOOOOOOOOOOOOOOOOOOOOOOOOOOOOOOOOOOOOOOOOOOOOOOOOOOOOO",
"OOOOOOOOOOOOOOOOOOOOOOOOOOOOOOOOOOOOOOOOOOOOOOOOOOOOOOOOOOOO",
"OOOOOOOOOOOOOOOOOOOOOOOOOOOOOOOOOOOOOOOOOOOOOOOOOOOOOOOOOOOO",
"OOOOOOOOOOOOOOOOOOOOOOOOOOOOOOOOOOOOOOOOOOOOOOOOOOOOOOOOOOOO",
"OOOOOOOOOOOOOOOOOOOOOOOOOOOOOOOOOOOOOOOOOOOOOOOOOOOOOOOOOOOO",
"OOOOOOOOOOOOOOOOOOOOOOOOOOOOOOOOOOOOOOOOOOOOOOOOOOOOOOOOOOOO",
"OOOOOOOOOOOOOOOOOOOOOOOOOOOOOOOOOOOOOOOOOOOOOOOOOOOOOOOOOOOO",
"OOOOOOOOOOOOOOOOOOOOOOOOOOOOOOOOOOOOOOOOOOOOOOOOOOOOOOOOOOOO",
"OOOOOOOOOOOOOOOOOOOOOOOOOOOOOOOOOOOOOOOOOOOOOOOOOOOOOOOOOOOO",
"OOOOOOOOOOOOOOOOOOOOOOOOOOOOOOOOOOOOOOOOOOOOOOOOOOOOOOOOOOOO",
"OOOOOOOOOOOOOOOOOOOOOOOOOOOOOOOOOOOOOOOOOOOOOOOOOOOOOOOOOOOO",
"OOOOOOOOOOOOOOOOOOOOOOOOOOOOOOOOOOOOOOOOOOOOOOOOOOOOOOOOOOOO",
"OOOOOOOOOOOOOOOOOOOOOOOOOOOOOOOOOOOOOOOOOOOOOOOOOOOOOOOOOOOO"
};
