/* XPM */
static char *result[] = {
/* columns rows colors chars-per-pixel */
"60 60 10 1 ",
"  c black",
". c #1D235D",
"X c #3B7251",
"o c #9E2E46",
"O c #509B66",
"+ c #33418A",
"@ c #425B9E",
"# c #4D8AB3",
"$ c #65B1B8",
"% c white",
/* pixels */
"OOOOOOOOOOOOOOOOOOOOOOOOOOOOOOOOOOOOOOOOOOOOOOOOOOOOOOOOOOOO",
"OOOOOOOOOOOOOOOOOOOOOOOOOOOOOOOOOOOOOOOOOOOOOOOOOOOOOOOOOOOO",
"OOOOOOOOOOOOOOOOOOOOOOOOOOOOOOOOOOOOOOOOOOOOOOOOOOOOOOOOOOOO",
"OOOOOOOOOOOOOOOOOOOOOOOOOOOOOOOOOOOOOOOOOOOOOOOOOOOOOOOOOOOO",
"OOOOOOOOOOOOOOOOOOOOOOOOOOOOOOOOOOOOOOOOOOOOOOOOOOOOOOOOOOOO",
"OOOOOOOOOOOOOOOOOOOOOOOOOOOOOOOOOOOOOOOOOOOOOOOOOOOOOOOOOOOO",
"OOOOOOOOOOOOOOOOOOOOOOOOOOOOOOOOOOOOOOOOOOOOOOOOOOOOOOOOOOOO",
"OOOOOOOOOOOOOOOOOOOOOOOOOOOOOOOOOOOOOOOOOOOOOOOOOOOOOOOOOOOO",
"OOOOOOOOOOOOOOOOOOOOOOOOOOOOOOOOOOOOOOOOOOOOOOOOOOOOOOOOOOOO",
"OOOOOOOOOOOOOOOOOOOOOOOOOOOOOOOOOOOOOOOOOOOOOOOOOOOOOOOOOOOO",
"OOOOOOOOOOOOOOOOOOOOOOOOOOOOOOOOOOOOOOOOOOOOOOOOOOOOOOOOOOOO",
"OOOOOOOOOOOOOOOOOOOOOOOOOOOOOOOOOOOOOOOOOOOOOOOOOOOOOOOOOOOO",
"OOOOOOOOOOOOOOOOOOOOOOOOOOOOOOOOOOOOOOOOOOOOOOOOOOOOOOOOOOOO",
"OOOOOOOOOOOOOOOOOOOOOOOOOOOOOOOOOOOOOOOOOOOOOOOOOOOOOOOOOOOO",
"OOOOOOOOOOOOOOOOOOOOOOOOOOOOOOOOOOOOOOOOOOOOOOOOOOOOOOOOOOOO",
"OOOOOOOOOOOOOOOOOOOOOOOOOOOOOOOOOOOOOOOOOOOOOOOOOOOOOOOOOOOO",
"OOOOOOOOOOOOOOOOOOOOO...................OOOOOOOOOOOOOOOOOOOO",
"OOOOOOOOOOOOOOOOOOOOO...................OOOOOOOOOOOOOOOOOOOO",
"OOOOOOOOOOOOOOOOOOOOO...................OOOOOOOOOOOOOOOOOOOO",
"OOOOOOOOOOOOOOOO.....#####$$$$$$$$$$$$##...OOOOOOOOOOOOOOOOO",
"OOOOOOOOOOOOOOOO.....#####$$$$$$$$$$$$##...OOOOOOOOOOOOOOOOO",
"OOOOOOOOOOOOOO..###$$$$$$$$$$$$$$$$$$$$$###..OOOOOOOOOOOOOOO",
"OOOOOOOOOOOOOO..###$$$$$$$$$$$$$$$$$$$$$###..OOOOOOOOOOOOOOO",
"OOOOOOOOOOOOOO..###$$$$$$$$$$$$$$$$$$$$$###..OOOOOOOOOOOOOOO",
"OOOOOOOOOOOO..##$$$$$$$$$$%%   $$$$   $$$$$@@..OOOOOOOOOOOOO",
"OOOOOOOOOOOO..##$$$$$$$$$$%%   $$$$   $$$$$@@..OOOOOOOOOOOOO",
"OOOOOOOOO...@@##$$$$$$$$$$     $$$$   $$$$$##..OOOOOOOOOOOOO",
"OOOOOOOOO...@@##$$$$$$$$$$     $$$$   $$$$$##..OOOOOOOOOOOOO",
"OOOOOOOOO...@@##$$$$$+++++$$$$$$$$$$$$$$+++##..OOOOOOOOOOOOO",
"OOOOOOOOO...@@##$$$$$+++++$$$$$$$$$$$$$$+++##..OOOOOOOOOOOOO",
"OOOOOOOOO...@@##$$$$$+++++$$$$$$$$$$$$$$+++##..OOOOOOOOOOOOO",
"OOOOOOOOO...@@##$$$$$$$$++++++++++++++++$$$##..OOOOOOOOOOOOO",
"OOOOOOOOO...@@##$$$$$$$$++++++++++++++++$$$##..OOOOOOOOOOOOO",
"OOOOOOOOO...@@@@###$$$$$$$ooooo++++$$$$$###@@..OOOOOOOOOOOOO",
"OOOOOOOOO...@@@@###$$$$$$$ooooo++++$$$$$###@@..OOOOOOOOOOOOO",
"OOOOOOOOOXXX..@@@@@#####################@@@@@..OOOOOOOOOOOOO",
"OOOOOOOOOXXX..@@@@@#####################@@@@@..OOOOOOOOOOOOO",
"OOOOOOOOOXXX..@@@@@#####################@@@@@..OOOOOOOOOOOOO",
"OOOOOOOOOXXXXXXX@@@@@@@@@@@@@@@@@@@@@@@@@@@..XXOOOOOOOOOOOOO",
"OOOOOOOOOXXXXXXX@@@@@@@@@@@@@@@@@@@@@@@@@@@..XXOOOOOOOOOOOOO",
"OOOOOOOOOOOOXXXXXXXXXXXXXXXXXXXXXXXXXXXXXXXXXOOOOOOOOOOOOOOO",
"OOOOOOOOOOOOXXXXXXXXXXXXXXXXXXXXXXXXXXXXXXXXXOOOOOOOOOOOOOOO",
"OOOOOOOOOOOOXXXXXXXXXXXXXXXXXXXXXXXXXXXXXXXXXOOOOOOOOOOOOOOO",
"OOOOOOOOOOOOOOOOOOOOOOOOOOOOOOOOOOOOOOOOOOOOOOOOOOOOOOOOOOOO",
"OOOOOOOOOOOOOOOOOOOOOOOOOOOOOOOOOOOOOOOOOOOOOOOOOOOOOOOOOOOO",
"OOOOOOOOOOOOOOOOOOOOOOOOOOOOOOOOOOOOOOOOOOOOOOOOOOOOOOOOOOOO",
"OOOOOOOOOOOOOOOOOOOOOOOOOOOOOOOOOOOOOOOOOOOOOOOOOOOOOOOOOOOO",
"OOOOOOOOOOOOOOOOOOOOOOOOOOOOOOOOOOOOOOOOOOOOOOOOOOOOOOOOOOOO",
"OOOOOOOOOOOOOOOOOOOOOOOOOOOOOOOOOOOOOOOOOOOOOOOOOOOOOOOOOOOO",
"OOOOOOOOOOOOOOOOOOOOOOOOOOOOOOOOOOOOOOOOOOOOOOOOOOOOOOOOOOOO",
"OOOOOOOOOOOOOOOOOOOOOOOOOOOOOOOOOOOOOOOOOOOOOOOOOOOOOOOOOOOO",
"OOOOOOOOOOOOOOOOOOOOOOOOOOOOOOOOOOOOOOOOOOOOOOOOOOOOOOOOOOOO",
"OOOOOOOOOOOOOOOOOOOOOOOOOOOOOOOOOOOOOOOOOOOOOOOOOOOOOOOOOOOO",
"OOOOOOOOOOOOOOOOOOOOOOOOOOOOOOOOOOOOOOOOOOOOOOOOOOOOOOOOOOOO",
"OOOOOOOOOOOOOOOOOOOOOOOOOOOOOOOOOOOOOOOOOOOOOOOOOOOOOOOOOOOO",
"OOOOOOOOOOOOOOOOOOOOOOOOOOOOOOOOOOOOOOOOOOOOOOOOOOOOOOOOOOOO",
"OOOOOOOOOOOOOOOOOOOOOOOOOOOOOOOOOOOOOOOOOOOOOOOOOOOOOOOOOOOO",
"OOOOOOOOOOOOOOOOOOOOOOOOOOOOOOOOOOOOOOOOOOOOOOOOOOOOOOOOOOOO",
"OOOOOOOOOOOOOOOOOOOOOOOOOOOOOOOOOOOOOOOOOOOOOOOOOOOOOOOOOOOO",
"OOOOOOOOOOOOOOOOOOOOOOOOOOOOOOOOOOOOOOOOOOOOOOOOOOOOOOOOOOOO"
};
