/* XPM */
static char *result[] = {
/* columns rows colors chars-per-pixel */
"60 60 9 1 ",
"  c black",
". c #21110D",
"X c #342319",
"o c #503625",
"O c #755338",
"+ c #509B66",
"@ c #D99945",
"# c #E9CE7C",
"$ c #677598",
/* pixels */
"++++++++++++++++++++++++++++++++++++++++++++++++++++++++++++",
"++++++++++++++++++++++++++++++++++++++++++++++++++++++++++++",
"++++++++++++++++++++++++++++++++++++++++++++++++++++++++++++",
"++++++++++++++++++++++++++++++++++++++++++++++++++++++++++++",
"++++++++++++++++++++++++++++++++++++++++++++++++++++++++++++",
"++++++++++++++++++++++++++++++++++++++++++++++++++++++++++++",
"++++++++++++++++++++++++++++++++++++++++++++++++++++++++++++",
"++++++++++++++++++++++++++++++++++++++++++++++++++++++++++++",
"++++++++++++++++++++++++++++++++++++++++++++++++++++++++++++",
"++++++++++++++++++++++++++++++++++++++++++++++++++++++++++++",
"++++++++++++++++++++++++++++++++++++++++++++++++++++++++++++",
"++++++++++++++++++++++++++++++++++++++++++++++++++++++++++++",
"++++++++++++++++++++++++++++++++++++++++++++++++++++++++++++",
"++++++++++++++++++++++++++++++++++++++++++++++++++++++++++++",
"++++++++++++++++++++++++++++++++++++++++++++++++++++++++++++",
"+++++++++++++++$$..........................$$+++++++++++++++",
"+++++++++++++++$$..........................$$+++++++++++++++",
"+++++++++++++++..OOOOOOOOOOOOOOOOOOOOOOOOOO..+++++++++++++++",
"+++++++++++++++..OOOOOOOOOOOOOOOOOOOOOOOOOO..+++++++++++++++",
"+++++++++++++++..OOOOOOOOOOOOOOOOOOOOOOOOOO..+++++++++++++++",
"+++++++++++++++..OOOOOOOOOOOOOOOOOOOOOOOOOO..+++++++++++++++",
"+++++++++++++++..ooXXXXXXXXXXXXXXXXXXXXXXoo..+++++++++++++++",
"+++++++++++++++..OOXXoooXXooooooooXXoooXXOO..+++++++++++++++",
"+++++++++++++++..OOXXoooXXooooooooXXoooXXOO..+++++++++++++++",
"+++++++++++++++..OOXXoooooooooooooXXoooXXOO..+++++++++++++++",
"+++++++++++++++..OOXXoooooooooooooXXoooXXOO..+++++++++++++++",
"+++++++++++++++..OOXXooooooooooooooooooXXOO..+++++++++++++++",
"+++++++++++++++..OOXXooooooooooooooooooXXOO..+++++++++++++++",
"+++++++++++++++..OOXXooooooooooooooooooXXOO..+++++++++++++++",
"+++++++++++++++..OOXXooooooooooooooooooXXOO..+++++++++++++++",
"+++++++++++++++..OOXXooooooooooooooo#@@XXOO..+++++++++++++++",
"+++++++++++++++..OOXXooooooooooooooo#@@XXOO..+++++++++++++++",
"+++++++++++++++..OOXXooooooooooooooo@@@XXOO..+++++++++++++++",
"+++++++++++++++..OOXXooooooooooooooo@@@XXOO..+++++++++++++++",
"+++++++++++++++..OOXXoooooooooooooooXXXXXOO..+++++++++++++++",
"+++++++++++++++..OOXXoooooooooooooooXXXXXOO..+++++++++++++++",
"+++++++++++++++..OOXXoooXXoooooooooooooXXOO..+++++++++++++++",
"+++++++++++++++..OOXXoooXXoooooooooooooXXOO..+++++++++++++++",
"+++++++++++++++..OOXXoooXXoooooooooooooXXOO..+++++++++++++++",
"+++++++++++++++..OOXXoooXXooooooooXXoooXXOO..+++++++++++++++",
"+++++++++++++++..OOXXoooXXooooooooXXoooXXOO..+++++++++++++++",
"+++++++++++++++..                          ..+++++++++++++++",
"+++++++++++++++..                          ..+++++++++++++++",
"+++++++++++++++  ++++++++++++++++++++++++++  +++++++++++++++",
"+++++++++++++++  ++++++++++++++++++++++++++  +++++++++++++++",
"++++++++++++++++++++++++++++++++++++++++++++++++++++++++++++",
"++++++++++++++++++++++++++++++++++++++++++++++++++++++++++++",
"++++++++++++++++++++++++++++++++++++++++++++++++++++++++++++",
"++++++++++++++++++++++++++++++++++++++++++++++++++++++++++++",
"++++++++++++++++++++++++++++++++++++++++++++++++++++++++++++",
"++++++++++++++++++++++++++++++++++++++++++++++++++++++++++++",
"++++++++++++++++++++++++++++++++++++++++++++++++++++++++++++",
"++++++++++++++++++++++++++++++++++++++++++++++++++++++++++++",
"++++++++++++++++++++++++++++++++++++++++++++++++++++++++++++",
"++++++++++++++++++++++++++++++++++++++++++++++++++++++++++++",
"++++++++++++++++++++++++++++++++++++++++++++++++++++++++++++",
"++++++++++++++++++++++++++++++++++++++++++++++++++++++++++++",
"++++++++++++++++++++++++++++++++++++++++++++++++++++++++++++",
"++++++++++++++++++++++++++++++++++++++++++++++++++++++++++++",
"++++++++++++++++++++++++++++++++++++++++++++++++++++++++++++"
};
