/* XPM */
static char *result[] = {
/* columns rows colors chars-per-pixel */
"60 60 7 1 ",
"  c black",
". c #21110D",
"X c #342319",
"o c #503625",
"O c #755338",
"+ c #509B66",
"@ c #677598",
/* pixels */
"++++++++++++++++++++++++++++++++++++++++++++++++++++++++++++",
"++++++++++++++++++++++++++++++++++++++++++++++++++++++++++++",
"++++++++++++++++++++++++++++++++++++++++++++++++++++++++++++",
"++++++++++++++++++++++++++++++++++++++++++++++++++++++++++++",
"++++++++++++++++++++++++++++++++++++++++++++++++++++++++++++",
"++++++++++++++++++++++++++++++++++++++++++++++++++++++++++++",
"++++++++++++++++++++++++++++++++++++++++++++++++++++++++++++",
"++++++++++++++++++++++++++++++++++++++++++++++++++++++++++++",
"++++++++++++++++++++++++++++++++++++++++++++++++++++++++++++",
"++++++++++++++++++++++++++++++++++++++++++++++++++++++++++++",
"++++++++++++++++++++++++++++++++++++++++++++++++++++++++++++",
"++++++++++++++++++++++++++++++++++++++++++++++++++++++++++++",
"++++++++++++++++++++++++++++++++++++++++++++++++++++++++++++",
"++++++++++++++++++++++++++++++++++++++++++++++++++++++++++++",
"++++++++++++++++++++++++++++++++++++++++++++++++++++++++++++",
"+++++++++++++++@@..........................@@+++++++++++++++",
"+++++++++++++++@@..........................@@+++++++++++++++",
"+++++++++++++++..OOOOOOOOOOOOOOOOOOOOOOOOOO..+++++++++++++++",
"+++++++++++++++..OOOOOOOOOOOOOOOOOOOOOOOOOO..+++++++++++++++",
"+++++++++++++++..OOOOOOOOOOOOOOOOOOOOOOOOOO..+++++++++++++++",
"+++++++++++++++..OOOOOOOOOOOOOOOOOOOOOOOOOO..+++++++++++++++",
"+++++++++++++++..ooXXXXXXXXXXXXXXXXXXXXXXoo..+++++++++++++++",
"+++++++++++++++..OOXXo                   OO..+++++++++++++++",
"+++++++++++++++..OOXXo                   OO..+++++++++++++++",
"+++++++++++++++..OOXXo                   OO..+++++++++++++++",
"+++++++++++++++..OOXXo                   OO..+++++++++++++++",
"+++++++++++++++..OOXXo                   OO..+++++++++++++++",
"+++++++++++++++..OOXXo                   OO..+++++++++++++++",
"+++++++++++++++..OOXXo                   OO..+++++++++++++++",
"+++++++++++++++..OOXXo                   OO..+++++++++++++++",
"+++++++++++++++..OOXXo                   OO..+++++++++++++++",
"+++++++++++++++..OOXXo                   OO..+++++++++++++++",
"+++++++++++++++..OOXXo                   OO..+++++++++++++++",
"+++++++++++++++..OOXXo                   OO..+++++++++++++++",
"+++++++++++++++..OOXXo                   OO..+++++++++++++++",
"+++++++++++++++..OOXXo                   OO..+++++++++++++++",
"+++++++++++++++..OOXXo                   OO..+++++++++++++++",
"+++++++++++++++..OOXXo                   OO..+++++++++++++++",
"+++++++++++++++..OOXXo                   OO..+++++++++++++++",
"+++++++++++++++..OOXXo                   OO..+++++++++++++++",
"+++++++++++++++..OOXXo                   OO..+++++++++++++++",
"+++++++++++++++..                          ..+++++++++++++++",
"+++++++++++++++..                          ..+++++++++++++++",
"+++++++++++++++  ++++++++++++++++++++++++++  +++++++++++++++",
"+++++++++++++++  ++++++++++++++++++++++++++  +++++++++++++++",
"++++++++++++++++++++++++++++++++++++++++++++++++++++++++++++",
"++++++++++++++++++++++++++++++++++++++++++++++++++++++++++++",
"++++++++++++++++++++++++++++++++++++++++++++++++++++++++++++",
"++++++++++++++++++++++++++++++++++++++++++++++++++++++++++++",
"++++++++++++++++++++++++++++++++++++++++++++++++++++++++++++",
"++++++++++++++++++++++++++++++++++++++++++++++++++++++++++++",
"++++++++++++++++++++++++++++++++++++++++++++++++++++++++++++",
"++++++++++++++++++++++++++++++++++++++++++++++++++++++++++++",
"++++++++++++++++++++++++++++++++++++++++++++++++++++++++++++",
"++++++++++++++++++++++++++++++++++++++++++++++++++++++++++++",
"++++++++++++++++++++++++++++++++++++++++++++++++++++++++++++",
"++++++++++++++++++++++++++++++++++++++++++++++++++++++++++++",
"++++++++++++++++++++++++++++++++++++++++++++++++++++++++++++",
"++++++++++++++++++++++++++++++++++++++++++++++++++++++++++++",
"++++++++++++++++++++++++++++++++++++++++++++++++++++++++++++"
};
