/* XPM */
static char *result[] = {
/* columns rows colors chars-per-pixel */
"60 60 12 1 ",
"  c black",
". c #21110D",
"X c #402717",
"o c #573A23",
"O c #3B7251",
"+ c #AC7B5D",
"@ c #509B66",
"# c #1D438A",
"$ c #2C65B5",
"% c #787E97",
"& c #A4A8B5",
"* c #C1AC8F",
/* pixels */
"@@@@@@@@@@@@@@@@@@@@@@@@@@@@@@@@@@@@@@@@@@@@@@@@@@@@@@@@@@@@",
"@@@@@@@@@@@@@@@@@@@@@@@@@@@@@@@@@@@@@@@@@@@@@@@@@@@@@@@@@@@@",
"@@@@@@@@@@@@@@@@@@@@@@@@@@@@@@@@@@@@@@@@@@@@@@@@@@@@@@@@@@@@",
"@@@@@@@@@@@@@@@@@@@@@@@@@@@@@@@@@@@@@@@@@@@@@@@@@@@@@@@@@@@@",
"@@@@@@@@@@@@@@@@@@@@@@@@@@@@@@@@@@@@@@@@@@@@@@@@@@@@@@@@@@@@",
"@@@@@@@@@@@@@@@@@@@@@@@@@@@@@@@@@@@@@@@@@@@@@@@@@@@@@@@@@@@@",
"@@@@@@@@@@@@@@@@@@@@@@@@@@@@@@@@@@@@@@@@@@@@@@@@@@@@@@@@@@@@",
"@@@@@@@@@@@@@@@@@@@@@@@@@@@@@@@@@@@@@@@@@@@@@@@@@@@@@@@@@@@@",
"@@@@@@@@@@@@@@@@@@@@@@@@@@@@@@@@@@@@@@@@@@@@@@@@@@@@@@@@@@@@",
"@@@@@@@@@@@@@@@@@@@@@@@@@@@@@@@@@@@@@@@@@@@@@@@@@@@@@@@@@@@@",
"@@@@@@@@@@@@@@@@@@@@@@@@@@@@@@@@@@@@@@@@@@@@@@@@@@@@@@@@@@@@",
"@@@@@@@@@@@@@@@@@@@@       @@    @@@@@@@@@@@@@@@@@@@@@@@@@@@",
"@@@@@@@@@@@@@@@@@@@@  ooooX  oo     @@@@@@@@@@@@@@@@@@@@@@@@",
"@@@@@@@@@@@@@@@@@@@@  ooooX  oo     @@@@@@@@@@@@@@@@@@@@@@@@",
"@@@@@@@@@@@@@@@@@@@@    oooXXooXXooo  @@@@@@@@@@@@@@@@@@@@@@",
"@@@@@@@@@@@@@@@@@@@@    oooXXooXXooo  @@@@@@@@@@@@@@@@@@@@@@",
"@@@@@@@@@@@@@@@@@@@ XXoooooooooooooooo  @@@@@@@@@@@@@@@@@@@@",
"@@@@@@@@@@@@@@@@@@@ XXoooooooooooooooo  @@@@@@@@@@@@@@@@@@@@",
"@@@@@@@@@@@@@@@@@  Xoooooooooooooooooooo @@@@@@@@@@@@@@@@@@@",
"@@@@@@@@@@@@@@@@@  XooooXXoooooXXXoooooo @@@@@@@@@@@@@@@@@@@",
"@@@@@@@@@@@@@@@@@  XooooXXoooooXXXoooooo @@@@@@@@@@@@@@@@@@@",
"@@@@@@@@@@@@@@@@@  XXXXXXXoooooXX+++XXooX  @@@@@@@@@@@@@@@@@",
"@@@@@@@@@@@@@@@@@  XXXXXXXoooooXX+++XXooX  @@@@@@@@@@@@@@@@@",
"@@@@@@@@@@@@@@@@@  XooXXXXoooXX+++++++XXX  @@@@@@@@@@@@@@@@@",
"@@@@@@@@@@@@@@@@@  XooXXXXoooXX+++++++XXX  @@@@@@@@@@@@@@@@@",
"@@@@@@@@@@@@@@@@@  Xoooo++Xoo++..***..  X  @@@@@@@@@@@@@@@@@",
"@@@@@@@@@@@@@@@@@  XXXoo+++XX**..***..   @@@@@@@@@@@@@@@@@@@",
"@@@@@@@@@@@@@@@@@  XXXoo+++XX**..***..   @@@@@@@@@@@@@@@@@@@",
"@@@@@@@@@@@@@@@@@@@ XXXX+++***********  @@@@@@@@@@@@@@@@@@@@",
"@@@@@@@@@@@@@@@@@@@ XXXX+++***********  @@@@@@@@@@@@@@@@@@@@",
"@@@@@@@@@@@@@@@@@@@ XXXXXX+++*******++  @@@@@@@@@@@@@@@@@@@@",
"@@@@@@@@@@@@@@@@@@@ XXXXXX+++*******++  @@@@@@@@@@@@@@@@@@@@",
"@@@@@@@@@@@@@@@@@@@ XXooooo+++++++++  @@@@@@@@@@@@@@@@@@@@@@",
"@@@@@@@@@@@@@@@@@@@ XXXXooo%%%%%%X    @@@@@@@@@@@@@@@@@@@@@@",
"@@@@@@@@@@@@@@@@@@@ XXXXooo%%%%%%X    @@@@@@@@@@@@@@@@@@@@@@",
"@@@@@@@@@@@@@@@@@@@ ****XXo%%&&&&X++++  @@@@@@@@@@@@@@@@@@@@",
"@@@@@@@@@@@@@@@@@@@ ****XXo%%&&&&X++++  @@@@@@@@@@@@@@@@@@@@",
"@@@@@@@@@@@@@@@@@@@ ****XX$$$$$$$#++++  @@@@@@@@@@@@@@@@@@@@",
"@@@@@@@@@@@@@@@@@@@ ****XX$$$$$$$#++++  @@@@@@@@@@@@@@@@@@@@",
"@@@@@@@@@@@@@@@@@@@@  XX###$$$$$$$XX  @@@@@@@@@@@@@@@@@@@@@@",
"@@@@@@@@@@@@@@@@@@@@  XXXX   ##$$$$$  @@@@@@@@@@@@@@@@@@@@@@",
"@@@@@@@@@@@@@@@@@@@@  XXXX   ##$$$$$  @@@@@@@@@@@@@@@@@@@@@@",
"@@@@@@@@@@@@@@@@@@@@      OOO  ##$XXXX  @@@@@@@@@@@@@@@@@@@@",
"@@@@@@@@@@@@@@@@@@@@      OOO  ##$XXXX  @@@@@@@@@@@@@@@@@@@@",
"@@@@@@@@@@@@@@@@@@@OOOOOOOOOOOO  XXXXX  O@@@@@@@@@@@@@@@@@@@",
"@@@@@@@@@@@@@@@@@@@OOOOOOOOOOOO  XXXXX  O@@@@@@@@@@@@@@@@@@@",
"@@@@@@@@@@@@@@@@@@@OOOOOOOOOOOOOOOOOOOOOO@@@@@@@@@@@@@@@@@@@",
"@@@@@@@@@@@@@@@@@@@@OOOOOOOOOOOOOOOOOOOO@@@@@@@@@@@@@@@@@@@@",
"@@@@@@@@@@@@@@@@@@@@OOOOOOOOOOOOOOOOOOOO@@@@@@@@@@@@@@@@@@@@",
"@@@@@@@@@@@@@@@@@@@@@@@@@@@@@@@@@@@@@@@@@@@@@@@@@@@@@@@@@@@@",
"@@@@@@@@@@@@@@@@@@@@@@@@@@@@@@@@@@@@@@@@@@@@@@@@@@@@@@@@@@@@",
"@@@@@@@@@@@@@@@@@@@@@@@@@@@@@@@@@@@@@@@@@@@@@@@@@@@@@@@@@@@@",
"@@@@@@@@@@@@@@@@@@@@@@@@@@@@@@@@@@@@@@@@@@@@@@@@@@@@@@@@@@@@",
"@@@@@@@@@@@@@@@@@@@@@@@@@@@@@@@@@@@@@@@@@@@@@@@@@@@@@@@@@@@@",
"@@@@@@@@@@@@@@@@@@@@@@@@@@@@@@@@@@@@@@@@@@@@@@@@@@@@@@@@@@@@",
"@@@@@@@@@@@@@@@@@@@@@@@@@@@@@@@@@@@@@@@@@@@@@@@@@@@@@@@@@@@@",
"@@@@@@@@@@@@@@@@@@@@@@@@@@@@@@@@@@@@@@@@@@@@@@@@@@@@@@@@@@@@",
"@@@@@@@@@@@@@@@@@@@@@@@@@@@@@@@@@@@@@@@@@@@@@@@@@@@@@@@@@@@@",
"@@@@@@@@@@@@@@@@@@@@@@@@@@@@@@@@@@@@@@@@@@@@@@@@@@@@@@@@@@@@",
"@@@@@@@@@@@@@@@@@@@@@@@@@@@@@@@@@@@@@@@@@@@@@@@@@@@@@@@@@@@@"
};
