/* XPM */
static char *result[] = {
/* columns rows colors chars-per-pixel */
"60 60 12 1 ",
"  c black",
". c #21110D",
"X c #402717",
"o c #573A23",
"O c #3B7251",
"+ c #AC7B5D",
"@ c #509B66",
"# c #1D438A",
"$ c #2C65B5",
"% c #787E97",
"& c #A4A8B5",
"* c #C1AC8F",
/* pixels */
"@@@@@@@@@@@@@@@@@@@@@@@@@@@@@@@@@@@@@@@@@@@@@@@@@@@@@@@@@@@@",
"@@@@@@@@@@@@@@@@@@@@@@@@@@@@@@@@@@@@@@@@@@@@@@@@@@@@@@@@@@@@",
"@@@@@@@@@@@@@@@@@@@@@@@@@@@@@@@@@@@@@@@@@@@@@@@@@@@@@@@@@@@@",
"@@@@@@@@@@@@@@@@@@@@@@@@@@@@@@@@@@@@@@@@@@@@@@@@@@@@@@@@@@@@",
"@@@@@@@@@@@@@@@@@@@@@@@@@@@@@@@@@@@@@@@@@@@@@@@@@@@@@@@@@@@@",
"@@@@@@@@@@@@@@@@@@@@@@@@@@@@@@@@@@@@@@@@@@@@@@@@@@@@@@@@@@@@",
"@@@@@@@@@@@@@@@@@@@@@@@@@@@@@@@@@@@@@@@@@@@@@@@@@@@@@@@@@@@@",
"@@@@@@@@@@@@@@@@@@@@@@@@@@@@@@@@@@@@@@@@@@@@@@@@@@@@@@@@@@@@",
"@@@@@@@@@@@@@@@@@@@@@@@@@@@@@@@@@@@@@@@@@@@@@@@@@@@@@@@@@@@@",
"@@@@@@@@@@@@@@@@@@@@@@@@@@@@@@@@@@@@@@@@@@@@@@@@@@@@@@@@@@@@",
"@@@@@@@@@@@@@@@@@@@@@@@@@@@@@@@@@@@@@@@@@@@@@@@@@@@@@@@@@@@@",
"@@@@@@@@@@@@@@@@@@@@@@@@@@@@@@@@@@@@@@@@@@@@@@@@@@@@@@@@@@@@",
"@@@@@@@@@@@@@@@@@@@@@@@@@@@@@@@@@@@@@@@@@@@@@@@@@@@@@@@@@@@@",
"@@@@@@@@@@@@@@@@@@@@@       @   @@@@@@@@@@@@@@@@@@@@@@@@@@@@",
"@@@@@@@@@@@@@@@@@@@@@  oooXX oo     @@@@@@@@@@@@@@@@@@@@@@@@",
"@@@@@@@@@@@@@@@@@@@@@  oooXX oo     @@@@@@@@@@@@@@@@@@@@@@@@",
"@@@@@@@@@@@@@@@@@@@@@   ooooXooXoooo @@@@@@@@@@@@@@@@@@@@@@@",
"@@@@@@@@@@@@@@@@@@@@ XXoooooooooooooo  @@@@@@@@@@@@@@@@@@@@@",
"@@@@@@@@@@@@@@@@@@@@ XXoooooooooooooo  @@@@@@@@@@@@@@@@@@@@@",
"@@@@@@@@@@@@@@@@@@  Xoooooooooooooooooo @@@@@@@@@@@@@@@@@@@@",
"@@@@@@@@@@@@@@@@@@  XoooXXoooooXXXooooo @@@@@@@@@@@@@@@@@@@@",
"@@@@@@@@@@@@@@@@@@  XoooXXoooooXXXooooo @@@@@@@@@@@@@@@@@@@@",
"@@@@@@@@@@@@@@@@@@  XXXXXXoooooX++++XooX  @@@@@@@@@@@@@@@@@@",
"@@@@@@@@@@@@@@@@@@  XXXXXXoooooX++++XooX  @@@@@@@@@@@@@@@@@@",
"@@@@@@@@@@@@@@@@@@  XooXXXoooXX++++++XXX  @@@@@@@@@@@@@@@@@@",
"@@@@@@@@@@@@@@@@@@  Xooo++XXo++.****.  X  @@@@@@@@@@@@@@@@@@",
"@@@@@@@@@@@@@@@@@@  Xooo++XXo++.****.  X  @@@@@@@@@@@@@@@@@@",
"@@@@@@@@@@@@@@@@@@  XXXo++++X**.****.   @@@@@@@@@@@@@@@@@@@@",
"@@@@@@@@@@@@@@@@@@@@ XXX++++*********  @@@@@@@@@@@@@@@@@@@@@",
"@@@@@@@@@@@@@@@@@@@@ XXX++++*********  @@@@@@@@@@@@@@@@@@@@@",
"@@@@@@@@@@@@@@@@@@@@@  XXXXX+*******+  @@@@@@@@@@@@@@@@@@@@@",
"@@@@@@@@@@@@@@@@@@@@@  XXXXX+*******+  @@@@@@@@@@@@@@@@@@@@@",
"@@@@@@@@@@@@@@@@@@@@@  XooooX+++++++ @@@@@@@@@@@@@@@@@@@@@@@",
"@@@@@@@@@@@@@@@@@@@@@  oooooX%%%%%XX @@@@@@@@@@@@@@@@@@@@@@@",
"@@@@@@@@@@@@@@@@@@@@@  oooooX%%%%%XX @@@@@@@@@@@@@@@@@@@@@@@",
"@@@@@@@@@@@@@@@@@@@@@  oooXXX%%&&&++ @@@@@@@@@@@@@@@@@@@@@@@",
"@@@@@@@@@@@@@@@@@@@@@  ***XX$$$$$$++ @@@@@@@@@@@@@@@@@@@@@@@",
"@@@@@@@@@@@@@@@@@@@@@  ***XX$$$$$$++ @@@@@@@@@@@@@@@@@@@@@@@",
"@@@@@@@@@@@@@@@@@@@@@  ***##$$$$$$  @@@@@@@@@@@@@@@@@@@@@@@@",
"@@@@@@@@@@@@@@@@@@@@@OO     X##$XXXX OO@@@@@@@@@@@@@@@@@@@@@",
"@@@@@@@@@@@@@@@@@@@@@OO     X##$XXXX OO@@@@@@@@@@@@@@@@@@@@@",
"@@@@@@@@@@@@@@@@@@@@OOOOOO     XXXXX OOO@@@@@@@@@@@@@@@@@@@@",
"@@@@@@@@@@@@@@@@@@@@OOOOOO     XXXXX OOO@@@@@@@@@@@@@@@@@@@@",
"@@@@@@@@@@@@@@@@@@@@OOOOOOOOOOOOOOOOOOOO@@@@@@@@@@@@@@@@@@@@",
"@@@@@@@@@@@@@@@@@@@@@OOOOOOOOOOOOOOOOOO@@@@@@@@@@@@@@@@@@@@@",
"@@@@@@@@@@@@@@@@@@@@@OOOOOOOOOOOOOOOOOO@@@@@@@@@@@@@@@@@@@@@",
"@@@@@@@@@@@@@@@@@@@@@@@@@@@@@@@@@@@@@@@@@@@@@@@@@@@@@@@@@@@@",
"@@@@@@@@@@@@@@@@@@@@@@@@@@@@@@@@@@@@@@@@@@@@@@@@@@@@@@@@@@@@",
"@@@@@@@@@@@@@@@@@@@@@@@@@@@@@@@@@@@@@@@@@@@@@@@@@@@@@@@@@@@@",
"@@@@@@@@@@@@@@@@@@@@@@@@@@@@@@@@@@@@@@@@@@@@@@@@@@@@@@@@@@@@",
"@@@@@@@@@@@@@@@@@@@@@@@@@@@@@@@@@@@@@@@@@@@@@@@@@@@@@@@@@@@@",
"@@@@@@@@@@@@@@@@@@@@@@@@@@@@@@@@@@@@@@@@@@@@@@@@@@@@@@@@@@@@",
"@@@@@@@@@@@@@@@@@@@@@@@@@@@@@@@@@@@@@@@@@@@@@@@@@@@@@@@@@@@@",
"@@@@@@@@@@@@@@@@@@@@@@@@@@@@@@@@@@@@@@@@@@@@@@@@@@@@@@@@@@@@",
"@@@@@@@@@@@@@@@@@@@@@@@@@@@@@@@@@@@@@@@@@@@@@@@@@@@@@@@@@@@@",
"@@@@@@@@@@@@@@@@@@@@@@@@@@@@@@@@@@@@@@@@@@@@@@@@@@@@@@@@@@@@",
"@@@@@@@@@@@@@@@@@@@@@@@@@@@@@@@@@@@@@@@@@@@@@@@@@@@@@@@@@@@@",
"@@@@@@@@@@@@@@@@@@@@@@@@@@@@@@@@@@@@@@@@@@@@@@@@@@@@@@@@@@@@",
"@@@@@@@@@@@@@@@@@@@@@@@@@@@@@@@@@@@@@@@@@@@@@@@@@@@@@@@@@@@@",
"@@@@@@@@@@@@@@@@@@@@@@@@@@@@@@@@@@@@@@@@@@@@@@@@@@@@@@@@@@@@"
};
