/* XPM */
static char *result[] = {
/* columns rows colors chars-per-pixel */
"60 60 9 1 ",
"  c #21110D",
". c #082B0C",
"X c #342319",
"o c #503625",
"O c #114517",
"+ c #347B2C",
"@ c #3B7251",
"# c #53A03B",
"$ c #509B66",
/* pixels */
"$$$$$$$$$$$$$$$$$$$$$$$$$$$$$$$$$$$$$$$$$$$$$$$$$$$$$$$$$$$$",
"$$$$$$$$$$$$$$$$$$$$$$$$$$$$$$$$$$$$$$$$$$$$$$$$$$$$$$$$$$$$",
"$$$$$$$$$$$$$$$$$$$$$$$$$$$$$$$$$$$$$$$$$$$$$$$$$$$$$$$$$$$$",
"$$$$$$$$$$$$$$$$$$$$$$$$$$$$$$$$$$$$$$$$$$$$$$$$$$$$$$$$$$$$",
"$$$$$$$$$$$$$$$$$$$$$$$$$$$$$$$$$$$$$$$$$$$$$$$$$$$$$$$$$$$$",
"$$$$$$$$$$$$$$$$$$$$$$$$$$$$$$$$$$$$$$$$$$$$$$$$$$$$$$$$$$$$",
"$$$$$$$$$$$$$$$$$$$$$$$$$$$$$$$$$$$$$$$$$$$$$$$$$$$$$$$$$$$$",
"$$$$$$$$$$$$$$$$$$$$$$$$$$$$$$$$$$$.....$$$$$$$$$$$$$$$$$$$$",
"$$$$$$$$$$$$$$$$$$$$$$$$$$$$$$$$$$$.....$$$$$$$$$$$$$$$$$$$$",
"$$$$$$$$$$$$$$$$$$......$$$$$$$$$..#####.$$$$$$$$$$$$$$$$$$$",
"$$$$$$$$$$$$$$$$..######..$$$...$########.....$$$$$$$$$$$$$$",
"$$$$$$$$$$$$$$$$..######..$$$...$########.....$$$$$$$$$$$$$$",
"$$$$$$$$$$$$$$$$..########...+++.########..+++..$$$$$$$$$$$$",
"$$$$$$$$$$$$$$$$..########...+++.########..+++..$$$$$$$$$$$$",
"$$$$$$$$$$$$$.....#########..###.#######.++###++.$$$$$$$$$$$",
"$$$$$$$$$$$..++###+#############+###############.$$$$$$$$$$$",
"$$$$$$$$$$$..++###+#############+###############.$$$$$$$$$$$",
"$$$$$$$$.....#################################++.$$$$$$$$$$$",
"$$$$$$$.###..###############################++...$$$$$$$$$$$",
"$$$$$$$.###..###############################++...$$$$$$$$$$$",
"$$$$$$$.#########################################..$$$$$$$$$",
"$$$$$$$.#########################################..$$$$$$$$$",
"$$$$$$$.##+########################################.$$$$$$$$",
"$$$$$$$$..##########################################..$$$$$$",
"$$$$$$$$..##########################################..$$$$$$",
"$$$$$$$$..##################################++######..$$$$$$",
"$$$$$$$.++###++###############################++####..$$$$$$",
"$$$$$$$.++###++###############################++####..$$$$$$",
"$$$$$$$.#####+++#####################+########OOO+++..$$$$$$",
"$$$$$..+###++#########################OO+###++###...$$$$$$$$",
"$$$$$..+###++#########################OO+###++###...$$$$$$$$",
"$$$$$..+++OOO###########################OOO+++#####.$$$$$$$$",
"$$$$$..+++OOO###########################OOO+++#####.$$$$$$$$",
"$$$$$...OOO#######+######################+++#####++O..$$$$$$",
"$$$$$$$...O#######+#######+##########+#####+++++++++..$$$$$$",
"$$$$$$$...O#######+#######+##########+#####+++++++++..$$$$$$",
"$$$$$$$.+++#####++#########++#########++###+++OOO+++..$$$$$$",
"$$$$$..+###+++++++###+#####++#########+++++###++OOOO..$$$$$$",
"$$$$$..+###+++++++###+#####++#########+++++###++OOOO..$$$$$$",
"$$$$$..O#######++++###+++++++########++++++#####+OOO..$$$$$$",
"$$$$$..O#######++++###+++++++########++++++#####+OOO..$$$$$$",
"$$$$$$$.++######++######+++##+###+++++OO###+####+...  $$$$$$",
"$$$$$$$ ..+OO###++######++####++###OOO++######+++OO.XX $$$$$",
"$$$$$$$ ..+OO###++######++####++###OOO++######+++OO.XX $$$$$",
"$$$$$  .+++++OO+++####++OO###########.+++OO#++++OOO.XX $$$$$",
"$$$$$  .+++++..+++O+++OOOO+###++###++...O+++OOOOOOO.XX $$$$$",
"$$$$$  .+++++..+++O+++OOOO+###++###++...O+++OOOOOOO.XX $$$$$",
"$$$$$  .+++OO..OOO++++OOOO++++++O++++O..O+++..OOOOO.@@@$$$$$",
"$$$$$  X..OOO...OO++++++OOO+++++OOOOOO...OOO.......@@@@$$$$$",
"$$$$$  X..OOO...OO++++++OOO+++++OOOOOO...OOO.......@@@@$$$$$",
"$$$$$@@@@@...XX.OOO..+++OOO..OOOOOOOO.XXX...  @@@@@@@@@$$$$$",
"$$$$$@@@@@...XX.OOO..+++OOO..OOOOOOOO.XXX...  @@@@@@@@@$$$$$",
"$$$$$$$@@@@  ooo.....OOOOO.XX........ XXooooXX  @@@@@@$$$$$$",
"$$$$$$$$@@@  oooooXXX.....ooooXX @@@@@  Xooooo  @@@@$$$$$$$$",
"$$$$$$$$@@@  oooooXXX.....ooooXX @@@@@  Xooooo  @@@@$$$$$$$$",
"$$$$$$$$$$@@@@@oXXX  @@@  oooX  @@@@@@@@@@@@@@@@@$$$$$$$$$$$",
"$$$$$$$$$$$$$@@@@@@@@@@@@@@@@@@@@@@@@@@@@@@@@@$$$$$$$$$$$$$$",
"$$$$$$$$$$$$$@@@@@@@@@@@@@@@@@@@@@@@@@@@@@@@@@$$$$$$$$$$$$$$",
"$$$$$$$$$$$$$$$$$$$$$$$$$$$$$$$$$$$$$$$$$$$$$$$$$$$$$$$$$$$$",
"$$$$$$$$$$$$$$$$$$$$$$$$$$$$$$$$$$$$$$$$$$$$$$$$$$$$$$$$$$$$"
};
